<?xml version="1.0" standalone="no"?>
<!DOCTYPE svg PUBLIC "-//W3C//DTD SVG 20010904//EN"
 "http://www.w3.org/TR/2001/REC-SVG-20010904/DTD/svg10.dtd">
<svg version="1.0" xmlns="http://www.w3.org/2000/svg"
 width="600.000000pt" height="600.000000pt" viewBox="0 0 600.000000 600.000000"
 preserveAspectRatio="xMidYMid meet">

<g transform="translate(0.000000,600.000000) scale(0.100000,-0.100000)"
fill="#000000" stroke="none">
<path d="M0 3000 l0 -3000 3000 0 3000 0 0 3000 0 3000 -3000 0 -3000 0 0
-3000z m3250 1812 c306 -67 571 -206 784 -413 l101 -98 -128 -1 -127 0 -58 47
c-170 139 -387 240 -617 288 -108 23 -342 31 -458 16 -314 -42 -585 -172 -811
-390 -237 -230 -374 -494 -426 -818 l-12 -72 -88 -80 c-48 -45 -91 -81 -95
-81 -9 0 2 151 21 279 47 315 195 614 426 857 240 253 562 422 913 480 124 20
454 12 575 -14z m1553 -597 c270 -41 446 -167 459 -330 l3 -40 -230 -3 -230
-2 -18 49 c-23 65 -72 91 -173 91 -205 -1 -254 -154 -66 -210 37 -11 122 -29
189 -40 375 -63 533 -169 533 -360 0 -190 -185 -325 -509 -371 -105 -15 -313
-7 -340 12 -26 19 -304 339 -299 344 2 2 59 13 127 23 112 18 123 18 127 3 26
-90 87 -130 211 -138 91 -6 149 7 193 43 60 51 28 124 -70 159 -25 9 -122 31
-215 50 -94 19 -183 39 -199 45 l-29 11 26 27 c14 15 38 54 53 87 36 78 38
190 5 276 -22 58 -85 133 -139 165 -18 10 -31 23 -29 29 6 18 147 66 236 80
116 18 266 18 384 0z m-2103 -660 l0 -665 1285 0 1285 0 0 -85 0 -85 -1285 0
-1285 0 0 -331 c0 -185 -4 -329 -9 -327 -12 4 -865 808 -869 819 -2 5 150 9
347 9 l351 0 0 466 0 466 -162 -154 c-90 -85 -347 -327 -573 -539 -225 -212
-545 -512 -709 -667 -164 -155 -302 -282 -305 -282 -3 0 -33 24 -65 53 -38 34
-57 58 -52 65 4 7 154 150 334 319 551 517 1348 1269 1527 1440 94 89 173 162
178 162 4 1 7 -298 7 -664z m1135 640 c167 -42 289 -126 342 -234 25 -50 28
-67 28 -156 0 -120 -20 -171 -100 -251 -47 -47 -178 -124 -212 -124 -12 0 -14
43 -12 263 l1 262 -49 0 -48 0 0 -58 c0 -46 -3 -57 -15 -55 -11 3 -15 20 -16
73 l-1 70 -69 0 -69 0 -3 -67 c-3 -69 -22 -97 -22 -33 0 30 -3 35 -24 35 -13
0 -26 -7 -30 -15 -3 -8 -12 -15 -21 -15 -8 0 -15 -7 -15 -15 0 -8 -9 -15 -20
-15 -13 0 -20 -7 -20 -20 0 -11 -4 -20 -10 -20 -5 0 -11 52 -12 123 l-3 122
-38 3 c-50 4 -67 -11 -67 -62 -1 -50 -17 -73 -50 -72 l-25 1 -3 -467 -2 -468
-210 0 -210 0 0 611 0 610 468 -4 c405 -3 476 -6 537 -22z m-425 -185 c0 -5
-4 -10 -10 -10 -5 0 -10 5 -10 10 0 6 5 10 10 10 6 0 10 -4 10 -10z m295 -50
c3 -5 1 -10 -4 -10 -6 0 -11 5 -11 10 0 6 2 10 4 10 3 0 8 -4 11 -10z m-35
-40 c0 -5 -4 -10 -10 -10 -5 0 -10 5 -10 10 0 6 5 10 10 10 6 0 10 -4 10 -10z
m-312 -11 c-2 -6 -8 -10 -13 -10 -5 0 -11 4 -13 10 -2 6 4 11 13 11 9 0 15 -5
13 -11z m342 -39 c0 -5 -4 -10 -10 -10 -5 0 -10 5 -10 10 0 6 5 10 10 10 6 0
10 -4 10 -10z m-300 -45 c0 -8 -4 -15 -10 -15 -5 0 -10 7 -10 15 0 8 5 15 10
15 6 0 10 -7 10 -15z m375 -25 c3 -5 1 -10 -4 -10 -6 0 -11 5 -11 10 0 6 2 10
4 10 3 0 8 -4 11 -10z m296 -582 c68 -77 136 -155 151 -172 14 -17 24 -34 22
-38 -6 -10 -412 -9 -436 0 -18 7 -258 281 -258 295 0 4 21 7 48 8 98 2 307 31
320 44 15 15 39 -7 153 -137z m-746 -873 c22 -143 41 -235 50 -245 27 -30 18
-40 -35 -40 -51 0 -64 12 -39 37 8 8 9 33 4 77 l-7 66 -38 0 -38 0 -7 -67 c-5
-46 -4 -68 4 -71 6 -2 11 -12 11 -23 0 -16 -7 -19 -40 -19 -43 0 -48 8 -26 43
8 12 33 127 55 255 22 128 43 238 47 244 13 20 21 -18 59 -257z m1340 0 c22
-143 41 -235 50 -245 27 -30 18 -40 -35 -40 -51 0 -64 12 -39 37 8 8 9 33 4
77 l-7 66 -38 0 -38 0 -7 -67 c-5 -46 -4 -68 4 -71 6 -2 11 -12 11 -23 0 -16
-7 -19 -40 -19 -43 0 -48 8 -26 43 8 12 33 127 55 255 22 128 43 238 47 244
13 20 21 -18 59 -257z m283 256 c16 -10 30 -131 15 -131 -6 0 -14 19 -19 41
-19 86 -69 75 -69 -15 0 -42 6 -61 30 -95 59 -83 75 -122 75 -181 0 -131 -64
-207 -128 -152 -17 13 -22 30 -23 79 -1 35 0 65 3 69 4 3 13 -18 22 -48 20
-68 29 -81 52 -76 26 5 41 76 26 126 -7 21 -27 58 -46 83 -53 68 -68 149 -45
232 17 64 66 95 107 68z m-3284 -38 c42 -89 152 -238 244 -330 280 -280 618
-422 1008 -424 227 0 420 40 603 127 l94 44 161 0 161 0 -25 -21 c-63 -50
-184 -125 -275 -169 -442 -217 -965 -219 -1411 -5 -246 118 -487 329 -642 563
-45 68 -82 128 -82 135 1 12 125 117 139 117 4 0 15 -17 25 -37z m1306 23 c0
-7 -7 -19 -15 -26 -12 -10 -15 -48 -15 -220 0 -115 3 -215 6 -224 7 -19 47
-21 62 -3 6 6 13 29 17 50 4 20 11 37 16 37 11 0 11 -30 3 -94 l-7 -46 -88 0
c-71 0 -89 3 -89 15 0 7 8 18 18 24 15 9 17 31 17 231 0 200 -2 223 -17 234
-33 24 -20 36 37 36 40 0 55 -4 55 -14z m653 -173 l67 -188 -3 163 c-2 144 -4
165 -19 173 -35 19 -21 39 27 39 49 0 52 -4 30 -46 -12 -23 -15 -75 -15 -267
0 -174 -3 -238 -11 -235 -7 2 -40 87 -75 188 -35 102 -65 190 -68 195 -2 6 -5
-63 -5 -152 -1 -150 1 -165 19 -183 31 -31 24 -40 -30 -40 -53 0 -68 19 -32
39 15 9 17 32 20 217 3 196 2 209 -17 235 -29 39 -26 49 12 49 l32 0 68 -187z
m386 172 c83 -42 108 -314 41 -446 -32 -62 -62 -79 -141 -79 -54 0 -69 3 -69
15 0 7 8 18 18 24 15 9 17 32 20 216 3 171 0 211 -12 237 -9 17 -16 35 -16 40
0 14 129 9 159 -7z m341 -5 c26 -26 33 -59 28 -126 -3 -38 -11 -61 -27 -78
-19 -21 -20 -25 -8 -33 62 -34 62 -214 0 -263 -19 -15 -40 -20 -84 -20 -61 0
-76 13 -44 40 12 10 15 49 15 230 0 181 -3 220 -15 230 -33 27 -17 40 50 40
51 0 69 -4 85 -20z m910 -45 c0 -74 -12 -85 -26 -22 -8 38 -12 42 -41 45 l-33
3 0 -101 0 -101 28 3 c21 2 28 9 30 31 2 15 8 27 13 27 5 0 9 -39 9 -87 0 -53
-4 -83 -9 -78 -5 6 -11 21 -13 35 -2 19 -10 26 -30 28 l-28 3 0 -98 c0 -54 4
-104 9 -111 5 -8 21 -12 37 -10 25 3 31 10 43 51 17 56 36 63 27 10 -3 -21 -6
-53 -6 -70 l0 -33 -95 0 c-76 0 -95 3 -95 15 0 7 8 18 18 24 15 9 17 32 20
221 3 178 1 216 -12 236 -27 40 -21 44 69 44 l85 0 0 -65z"/>
<path d="M2251 2713 c1 -5 61 -64 135 -131 l134 -124 0 131 0 131 -135 0 c-74
0 -135 -3 -134 -7z"/>
<path d="M3259 2435 c-4 -5 -10 -32 -13 -60 -4 -27 -9 -58 -12 -67 -4 -14 1
-18 25 -18 28 0 30 2 25 28 -3 15 -8 50 -12 77 -4 28 -10 46 -13 40z"/>
<path d="M4599 2435 c-4 -5 -10 -32 -13 -60 -4 -27 -9 -58 -12 -67 -4 -14 1
-18 25 -18 28 0 30 2 25 28 -3 15 -8 50 -12 77 -4 28 -10 46 -13 40z"/>
<path d="M3927 2554 c-4 -4 -7 -100 -7 -214 0 -223 5 -249 48 -236 98 32 90
442 -8 454 -14 2 -29 0 -33 -4z"/>
<path d="M4277 2553 c-4 -3 -7 -46 -7 -95 0 -81 2 -88 20 -88 27 0 40 30 40
95 0 31 -5 65 -10 76 -11 19 -31 25 -43 12z"/>
<path d="M4270 2228 c0 -57 4 -109 9 -117 13 -20 39 -6 52 26 16 42 7 148 -15
172 -38 42 -46 28 -46 -81z"/>
</g>
</svg>
